<svg width="20" height="20" viewBox="0 0 20 20" fill="none" xmlns="http://www.w3.org/2000/svg">
<path d="M17.256 12.253C17.16 11.586 16.645 11.066 15.982 10.911C13.405 10.307 12.759 8.823 12.65 7.177C12.193 7.092 11.38 7 10 7C8.62003 7 7.80703 7.092 7.35003 7.177C7.24103 8.823 6.59503 10.307 4.01803 10.911C3.35503 11.067 2.84003 11.586 2.74403 12.253L2.24703 15.695C2.07203 16.907 2.96203 18 4.20003 18H15.8C17.037 18 17.928 16.907 17.753 15.695L17.256 12.253ZM10 15.492C8.60503 15.492 7.47403 14.372 7.47403 12.992C7.47403 11.612 8.60503 10.492 10 10.492C11.395 10.492 12.526 11.612 12.526 12.992C12.526 14.372 11.394 15.492 10 15.492ZM19.95 6C19.926 4.5 16.108 2.001 10 2C3.89103 2.001 0.0730287 4.5 0.0500287 6C0.0270287 7.5 0.0710287 9.452 2.58503 9.127C5.52603 8.746 5.34503 7.719 5.34503 6.251C5.34503 5.227 7.73703 4.98 10 4.98C12.263 4.98 14.654 5.227 14.655 6.251C14.655 7.719 14.474 8.746 17.415 9.127C19.928 9.452 19.973 7.5 19.95 6Z" fill="#333333"/>
</svg>
